<svg xmlns="http://www.w3.org/2000/svg" viewBox="0 0 1200 720"><defs><linearGradient id="b" x2="1" y2="1"><stop stop-color="#16221f"/><stop offset="1" stop-color="#303a34"/></linearGradient><pattern id="p" width="14" height="14" patternUnits="userSpaceOnUse" patternTransform="rotate(45)"><line y2="14" stroke="#d4a660" stroke-width="4" opacity=".5"/></pattern></defs><rect width="1200" height="720" fill="url(#b)"/><g fill="none" stroke="#d8c3a1"><circle cx="340" cy="480" r="150" stroke-width="16"/><circle cx="790" cy="480" r="150" stroke-width="16"/><path d="M340 330v300M190 480h300M235 375l210 210M235 585l210-210M790 330v300M640 480h300M685 375l210 210M685 585l210-210" stroke-width="8"/></g><path d="M255 350L875 350L820 185L310 185Z" fill="#775f43" stroke="#79a897" stroke-width="11"/><path d="M875 355L1095 265" stroke="#d8c3a1" stroke-width="18"/><path d="M820 185Q930 125 1000 205" fill="none" stroke="url(#p)" stroke-width="55"/><circle cx="790" cy="480" r="150" fill="none" stroke="#d1a05d" stroke-width="8" stroke-dasharray="22 14"/><text x="48" y="60" fill="#f1e8d9" font-size="25" font-family="sans-serif">M45-C1 马车整体三维数字复原 · V1.2</text><text x="48" y="670" fill="#75aa98" font-size="16" font-family="sans-serif">实线：原始/修复</text><text x="280" y="670" fill="#d1a05d" font-size="16" font-family="sans-serif">虚线：证据复原</text><text x="520" y="670" fill="#d1a05d" opacity=".75" font-size="16" font-family="sans-serif">斜线：推测复原（非原始遗存）</text></svg>
